<svg width="425" height="425" viewBox="0 0 425 425" fill="none" xmlns="http://www.w3.org/2000/svg">
<g clip-path="url(#clip0_723_2291)">
<mask id="mask0_723_2291" style="mask-type:luminance" maskUnits="userSpaceOnUse" x="0" y="0" width="425" height="425">
<path d="M425 0H0V425H425V0Z" fill="white"/>
</mask>
<g mask="url(#mask0_723_2291)">
<g filter="url(#filter0_f_723_2291)">
<path d="M327.061 205.62C327.061 262.305 256.967 320.868 194.422 320.868C147.501 320.868 94.9395 290.391 94.9395 233.713C94.9395 147.707 156.278 104.133 218.823 104.133C281.369 104.133 327.061 148.935 327.061 205.62Z" stroke="url(#paint0_radial_723_2291)" stroke-width="22"/>
</g>
<g filter="url(#filter1_f_723_2291)">
<path d="M305.061 207.017C305.061 252.194 247.914 298.868 196.919 298.868C158.66 298.868 115.807 274.578 115.807 229.406C115.807 160.861 165.813 126.133 216.808 126.133C267.804 126.133 305.061 161.839 305.061 207.017Z" stroke="url(#paint1_radial_723_2291)" stroke-width="22"/>
</g>
<g filter="url(#filter2_f_723_2291)">
<path d="M305.061 207.017C305.061 252.194 247.914 298.868 196.919 298.868C158.66 298.868 115.807 274.578 115.807 229.406C115.807 160.861 165.813 126.133 216.808 126.133C267.804 126.133 305.061 161.839 305.061 207.017Z" stroke="url(#paint2_radial_723_2291)" stroke-width="22"/>
</g>
<g filter="url(#filter3_f_723_2291)">
<path d="M309.061 206.763C309.061 254.032 249.498 302.868 196.348 302.868C156.471 302.868 111.807 277.453 111.807 230.189C111.807 158.469 163.927 122.133 217.078 122.133C270.229 122.133 309.061 159.493 309.061 206.763Z" stroke="url(#paint3_radial_723_2291)" stroke-width="14"/>
</g>
<g filter="url(#filter4_f_723_2291)">
<path d="M313.561 206.477C313.561 256.1 251.281 307.368 195.705 307.368C154.009 307.368 107.307 280.688 107.307 231.07C107.307 155.779 161.805 117.633 217.381 117.633C272.957 117.633 313.561 156.854 313.561 206.477Z" stroke="url(#paint4_radial_723_2291)" stroke-width="5"/>
</g>
<mask id="mask1_723_2291" style="mask-type:luminance" maskUnits="userSpaceOnUse" x="105" y="115" width="426" height="426">
<path d="M105.318 115.133H530.318V540.133H105.318V115.133Z" fill="white"/>
</mask>
<g mask="url(#mask1_723_2291)">
<mask id="mask2_723_2291" style="mask-type:alpha" maskUnits="userSpaceOnUse" x="105" y="115" width="212" height="195">
<path d="M316.49 206.318C316.49 257.249 252.719 309.868 195.82 309.868C153.129 309.868 105.318 282.485 105.318 231.559C105.318 154.284 161.121 115.133 218.02 115.133C274.919 115.133 316.49 155.387 316.49 206.318Z" fill="#D9D9D9"/>
</mask>
<g mask="url(#mask2_723_2291)">
<g filter="url(#filter5_f_723_2291)">
<path d="M316.49 206.318C316.49 257.249 252.719 309.868 195.82 309.868C153.129 309.868 105.318 282.485 105.318 231.559C105.318 154.284 161.121 115.133 218.02 115.133C274.919 115.133 316.49 155.387 316.49 206.318Z" stroke="url(#paint5_radial_723_2291)" stroke-opacity="0.673477" stroke-width="7"/>
</g>
</g>
</g>
</g>
</g>
<defs>
<filter id="filter0_f_723_2291" x="19.9195" y="29.1128" width="382.162" height="366.774" filterUnits="userSpaceOnUse" color-interpolation-filters="sRGB">
<feFlood flood-opacity="0" result="BackgroundImageFix"/>
<feBlend mode="normal" in="SourceGraphic" in2="BackgroundImageFix" result="shape"/>
<feGaussianBlur stdDeviation="32.01" result="effect1_foregroundBlur_723_2291"/>
</filter>
<filter id="filter1_f_723_2291" x="68.8066" y="79.1328" width="283.255" height="266.734" filterUnits="userSpaceOnUse" color-interpolation-filters="sRGB">
<feFlood flood-opacity="0" result="BackgroundImageFix"/>
<feBlend mode="normal" in="SourceGraphic" in2="BackgroundImageFix" result="shape"/>
<feGaussianBlur stdDeviation="18" result="effect1_foregroundBlur_723_2291"/>
</filter>
<filter id="filter2_f_723_2291" x="39.6466" y="49.9728" width="341.575" height="325.054" filterUnits="userSpaceOnUse" color-interpolation-filters="sRGB">
<feFlood flood-opacity="0" result="BackgroundImageFix"/>
<feBlend mode="normal" in="SourceGraphic" in2="BackgroundImageFix" result="shape"/>
<feGaussianBlur stdDeviation="32.58" result="effect1_foregroundBlur_723_2291"/>
</filter>
<filter id="filter3_f_723_2291" x="86.6866" y="97.0128" width="247.495" height="230.974" filterUnits="userSpaceOnUse" color-interpolation-filters="sRGB">
<feFlood flood-opacity="0" result="BackgroundImageFix"/>
<feBlend mode="normal" in="SourceGraphic" in2="BackgroundImageFix" result="shape"/>
<feGaussianBlur stdDeviation="9.06" result="effect1_foregroundBlur_723_2291"/>
</filter>
<filter id="filter4_f_723_2291" x="94.5466" y="104.873" width="231.775" height="215.254" filterUnits="userSpaceOnUse" color-interpolation-filters="sRGB">
<feFlood flood-opacity="0" result="BackgroundImageFix"/>
<feBlend mode="normal" in="SourceGraphic" in2="BackgroundImageFix" result="shape"/>
<feGaussianBlur stdDeviation="5.13" result="effect1_foregroundBlur_723_2291"/>
</filter>
<filter id="filter5_f_723_2291" x="95.3984" y="105.213" width="231.011" height="214.574" filterUnits="userSpaceOnUse" color-interpolation-filters="sRGB">
<feFlood flood-opacity="0" result="BackgroundImageFix"/>
<feBlend mode="normal" in="SourceGraphic" in2="BackgroundImageFix" result="shape"/>
<feGaussianBlur stdDeviation="3.21" result="effect1_foregroundBlur_723_2291"/>
</filter>
<radialGradient id="paint0_radial_723_2291" cx="0" cy="0" r="1" gradientUnits="userSpaceOnUse" gradientTransform="translate(256.707 436.09) scale(358.667 358.667)">
<stop offset="0.17" stop-color="#BC82F3"/>
<stop offset="0.24" stop-color="#FF00D3"/>
<stop offset="0.35" stop-color="#001AFF"/>
<stop offset="0.58" stop-color="#7800FF"/>
<stop offset="0.7" stop-color="#FF001C"/>
<stop offset="0.81" stop-color="#FF8300"/>
<stop offset="0.92" stop-color="#8700FF"/>
</radialGradient>
<radialGradient id="paint1_radial_723_2291" cx="0" cy="0" r="1" gradientUnits="userSpaceOnUse" gradientTransform="translate(359.911 212.043) scale(372.945)">
<stop offset="0.17" stop-color="#BC82F3"/>
<stop offset="0.24" stop-color="#FF00D3"/>
<stop offset="0.35" stop-color="#001AFF"/>
<stop offset="0.58" stop-color="#7800FF"/>
<stop offset="0.7" stop-color="#FF001C"/>
<stop offset="0.81" stop-color="#FF8300"/>
<stop offset="0.92" stop-color="#8700FF"/>
</radialGradient>
<radialGradient id="paint2_radial_723_2291" cx="0" cy="0" r="1" gradientUnits="userSpaceOnUse" gradientTransform="translate(406.808 238.674) scale(374.363 374.363)">
<stop offset="0.17" stop-color="#BC82F3"/>
<stop offset="0.24" stop-color="#F5B9EA"/>
<stop offset="0.35" stop-color="#8D99FF"/>
<stop offset="0.58" stop-color="#AA6EEE"/>
<stop offset="0.7" stop-color="#FF6778"/>
<stop offset="0.81" stop-color="#FFBA71"/>
<stop offset="0.92" stop-color="#C686FF"/>
</radialGradient>
<radialGradient id="paint3_radial_723_2291" cx="0" cy="0" r="1" gradientUnits="userSpaceOnUse" gradientTransform="translate(135.612 287.487) scale(358.334 358.334)">
<stop offset="0.05" stop-color="#BC82F3"/>
<stop offset="0.35" stop-color="#F5B9EA"/>
<stop offset="0.61" stop-color="#009AFF"/>
<stop offset="1" stop-color="#FF6778"/>
</radialGradient>
<radialGradient id="paint4_radial_723_2291" cx="0" cy="0" r="1" gradientUnits="userSpaceOnUse" gradientTransform="translate(164.644 237.445) scale(275.788 275.788)">
<stop offset="0.05" stop-color="#BC82F3"/>
<stop offset="0.35" stop-color="#FD6D00"/>
<stop offset="0.65" stop-color="#009AFF"/>
<stop offset="1" stop-color="#FF6778"/>
</radialGradient>
<radialGradient id="paint5_radial_723_2291" cx="0" cy="0" r="1" gradientUnits="userSpaceOnUse" gradientTransform="translate(110.513 206.29) scale(329.64 329.64)">
<stop offset="0.04" stop-color="white"/>
<stop offset="0.36" stop-color="#FFE9D8" stop-opacity="0"/>
<stop offset="0.7" stop-color="#CAEAFF" stop-opacity="0.33"/>
<stop offset="1" stop-color="#FFD1D6"/>
</radialGradient>
<clipPath id="clip0_723_2291">
<rect width="425" height="425" fill="white"/>
</clipPath>
</defs>
</svg>
